<svg width="20" height="21" viewBox="0 0 20 21" fill="none" xmlns="http://www.w3.org/2000/svg">
<g clip-path="url(#clip0_725_5078)">
<path d="M14.1667 2.99999H17.5C17.721 2.99999 17.933 3.08779 18.0892 3.24407C18.2455 3.40035 18.3333 3.61231 18.3333 3.83333V17.1667C18.3333 17.3877 18.2455 17.5996 18.0892 17.7559C17.933 17.9122 17.721 18 17.5 18H2.49999C2.27898 18 2.06701 17.9122 1.91073 17.7559C1.75445 17.5996 1.66666 17.3877 1.66666 17.1667V3.83333C1.66666 3.61231 1.75445 3.40035 1.91073 3.24407C2.06701 3.08779 2.27898 2.99999 2.49999 2.99999H5.83332V1.33333H7.49999V2.99999H12.5V1.33333H14.1667V2.99999ZM3.33332 7.99999V16.3333H16.6667V7.99999H3.33332ZM4.99999 11.3333H9.16666V14.6667H4.99999V11.3333Z" fill="#A9B0B8"/>
</g>
<defs>
<clipPath id="clip0_725_5078">
<rect width="20" height="20" fill="white" transform="translate(0 0.5)"/>
</clipPath>
</defs>
</svg>
