<svg width="20" height="21" viewBox="0 0 20 21" fill="none" xmlns="http://www.w3.org/2000/svg">
<g clip-path="url(#clip0_864_4216)">
<path d="M16.6667 18.8333H3.33333C3.11232 18.8333 2.90036 18.7455 2.74408 18.5892C2.5878 18.433 2.5 18.221 2.5 18V2.99999C2.5 2.77898 2.5878 2.56701 2.74408 2.41073C2.90036 2.25445 3.11232 2.16666 3.33333 2.16666H16.6667C16.8877 2.16666 17.0996 2.25445 17.2559 2.41073C17.4122 2.56701 17.5 2.77898 17.5 2.99999V18C17.5 18.221 17.4122 18.433 17.2559 18.5892C17.0996 18.7455 16.8877 18.8333 16.6667 18.8333ZM5.83333 5.49999V8.83332H9.16667V5.49999H5.83333ZM5.83333 10.5V12.1667H14.1667V10.5H5.83333ZM5.83333 13.8333V15.5H14.1667V13.8333H5.83333ZM10.8333 6.33332V7.99999H14.1667V6.33332H10.8333Z" fill="white"/>
</g>
<defs>
<clipPath id="clip0_864_4216">
<rect width="20" height="20" fill="white" transform="translate(0 0.5)"/>
</clipPath>
</defs>
</svg>
