<svg width="24" height="25" viewBox="0 0 24 25" fill="none" xmlns="http://www.w3.org/2000/svg">
<path fill-rule="evenodd" clip-rule="evenodd" d="M12 23C17.799 23 22.5 18.299 22.5 12.5C22.5 6.70101 17.799 2 12 2C6.20101 2 1.5 6.70101 1.5 12.5C1.5 18.299 6.20101 23 12 23ZM16.5468 8.00889C16.1075 7.56969 15.3953 7.56959 14.956 8.00889L12.0166 10.9474L9.07809 8.00889C8.63875 7.56955 7.92661 7.56955 7.48727 8.00889C7.04793 8.44823 7.04793 9.16037 7.48727 9.59971L10.4257 12.5382L7.48727 15.4776C7.04797 15.9169 7.04806 16.6291 7.48727 17.0685C7.92661 17.5078 8.63875 17.5078 9.07809 17.0685L12.0166 14.129L14.956 17.0685C15.3954 17.5078 16.1075 17.5078 16.5468 17.0685C16.9862 16.6291 16.9862 15.917 16.5468 15.4776L13.6074 12.5382L16.5468 9.59971C16.9862 9.16037 16.9862 8.44823 16.5468 8.00889Z" fill="#8C959F"/>
</svg>
