<svg width="32" height="32" viewBox="0 0 32 32" fill="none" xmlns="http://www.w3.org/2000/svg">
<rect width="32" height="32" rx="16" fill="#C0C6CC"/>
<path d="M16 10.1667C17.1935 10.1667 18.3381 10.5881 19.182 11.3382C20.0259 12.0884 20.5 13.1058 20.5 14.1667C20.5 15.8076 20.871 17.0363 21.3519 17.9399C21.9665 19.0944 22.2737 19.6716 22.2566 19.8035C22.2367 19.9574 22.2113 19.9997 22.0848 20.0896C21.9764 20.1667 21.4371 20.1667 20.3586 20.1667H11.6415C10.563 20.1667 10.0237 20.1667 9.91527 20.0896C9.78882 19.9997 9.76341 19.9574 9.74347 19.8035C9.72638 19.6716 10.0336 19.0944 10.6482 17.9399C11.1291 17.0363 11.5001 15.8076 11.5001 14.1667C11.5001 13.1058 11.9742 12.0884 12.8181 11.3382C13.662 10.5881 14.8066 10.1667 16 10.1667ZM16 10.1667V8.5M13.7951 22.6667C14.3836 23.1861 15.1567 23.5013 16.0034 23.5013C16.8501 23.5013 17.6232 23.1861 18.2117 22.6667" stroke="white" stroke-width="2" stroke-linecap="round" stroke-linejoin="round"/>
</svg>
