<svg width="31" height="30" viewBox="0 0 31 30" fill="none" xmlns="http://www.w3.org/2000/svg">
<g clip-path="url(#clip0_725_5101)">
<path d="M14.1417 13.3601C14.1707 13.3571 14.1995 13.3524 14.2279 13.3461C14.3966 13.319 14.5482 13.2284 14.6513 13.093C14.7381 13.0159 14.8083 12.9219 14.8574 12.817C14.9066 12.712 14.9337 12.5984 14.9372 12.4827C14.9445 12.3795 14.9293 12.2761 14.8927 12.1793C14.8562 12.0824 14.7991 11.9945 14.7254 11.9215C14.6435 11.8488 14.5482 11.7927 14.4445 11.7566C14.3408 11.7205 14.2309 11.705 14.1212 11.7111C13.9155 11.7015 13.7143 11.7727 13.5608 11.909C13.4917 11.9715 13.4376 12.0485 13.4024 12.1344C13.3672 12.2203 13.3518 12.313 13.3574 12.4056C13.3648 12.6293 13.4448 12.8446 13.5854 13.0194C13.6403 13.1194 13.7205 13.2032 13.8181 13.263C13.9156 13.3228 14.0271 13.3563 14.1417 13.3601Z" fill="white"/>
<path d="M21.5287 17.5151C21.0351 17.5084 20.5451 17.6016 20.0889 17.7893C19.6327 17.9769 19.2198 18.255 18.8753 18.6064C18.7122 18.7692 18.5636 18.9456 18.4312 19.1338L18.4419 19.1465H18.4214C17.9488 19.8357 17.722 20.6622 17.777 21.4944C17.8321 22.3265 18.1659 23.1164 18.7252 23.7381C19.2846 24.3598 20.0373 24.7775 20.8634 24.9248C21.6895 25.0721 22.5415 24.9404 23.2835 24.5506C24.0254 24.1609 24.6148 23.5356 24.9575 22.7744C25.3003 22.0132 25.3767 21.1597 25.1747 20.3503C24.9726 19.5409 24.5037 18.822 23.8427 18.3081C23.1817 17.7943 22.3665 17.5152 21.5272 17.5151H21.5287Z" fill="white"/>
<path d="M7.93051 5.80264C7.06306 5.80292 6.22268 6.10192 5.55229 6.64891C4.8819 7.19589 4.42296 7.957 4.25392 8.8024C4.08489 9.64781 4.21608 10.5253 4.62513 11.2854C5.03418 12.0454 5.69591 12.6411 6.49737 12.9709C7.29883 13.3006 8.19046 13.3439 9.02052 13.0936C9.85059 12.8434 10.5677 12.3149 11.0496 11.5982C11.5315 10.8815 11.7483 10.021 11.6633 9.1632C11.5782 8.30543 11.1966 7.50345 10.5833 6.89395C10.239 6.54235 9.8263 6.26428 9.37019 6.07663C8.91408 5.88897 8.42412 5.79575 7.93051 5.80264Z" fill="white"/>
<path d="M15.096 0C12.1103 0 9.1917 0.879604 6.70918 2.52782C4.22665 4.17605 2.29173 6.51884 1.14915 9.25973C0.0065695 12.0006 -0.29242 15.0166 0.290062 17.9263C0.872545 20.836 2.31022 23.5087 4.42144 25.6065C6.53265 27.7043 9.22265 29.133 12.151 29.7118C15.0793 30.2906 18.1146 29.9935 20.873 28.8582C23.6314 27.7228 25.9891 25.8002 27.6478 23.3335C29.3066 20.8668 30.192 17.9667 30.192 15C30.192 11.0217 28.6015 7.20634 25.7704 4.3933C22.9394 1.58025 19.0997 0 15.096 0ZM26.4868 20.13V21.2444C26.4868 22.551 25.9644 23.8041 25.0345 24.7281C24.1047 25.652 22.8437 26.1711 21.5287 26.1711C20.2138 26.1711 18.9526 25.652 18.0228 24.7281C17.0929 23.8041 16.5705 22.551 16.5705 21.2444C16.5621 20.5202 16.7189 19.8035 17.0287 19.1479H17.0139L16.3277 18.3203C16.0318 18.6424 15.6723 18.9004 15.2714 19.078C14.8706 19.2557 14.4373 19.3491 13.9984 19.3527C13.2719 19.3787 12.5639 19.1218 12.0254 18.6366C11.7547 18.3899 11.5424 18.0869 11.4036 17.7491C11.2647 17.4112 11.2027 17.047 11.2221 16.6826C11.2385 16.1274 11.4099 15.5877 11.717 15.1236C12.0242 14.6596 12.455 14.2894 12.9615 14.0544C12.8415 13.9409 12.7344 13.8147 12.6423 13.6779C12.3844 13.3596 12.236 12.9675 12.2189 12.5592C12.2158 12.2961 12.261 12.0345 12.3523 11.7876C12.1107 12.2399 11.8013 12.6531 11.4346 13.0129C10.7408 13.6997 9.85773 14.1666 8.89697 14.3549C7.9362 14.5432 6.94079 14.4444 6.03656 14.0708C5.13232 13.6973 4.35978 13.0658 3.81654 12.2562C3.27331 11.4466 2.98382 10.4951 2.98451 9.52207C2.9852 8.54902 3.27613 7.59811 3.82051 6.78927C4.36489 5.98043 5.13834 5.35002 6.04311 4.97774C6.94787 4.60545 7.94336 4.50796 8.90386 4.69759C9.86435 4.88722 10.7468 5.35549 11.4396 6.04318C11.5257 6.13016 11.5977 6.22343 11.6767 6.31391V2.93743H12.8865V9.53046C12.8945 10.2462 12.742 10.9547 12.4398 11.6045C12.5293 11.424 12.6509 11.2612 12.799 11.124C13.1792 10.8051 13.664 10.6359 14.1614 10.6485C14.4085 10.6379 14.6552 10.6757 14.8875 10.76C15.1198 10.8442 15.3332 10.9732 15.5153 11.1394C15.6918 11.3142 15.8296 11.5239 15.9199 11.7547C16.0103 11.9855 16.051 12.2325 16.0397 12.4799C16.0397 13.4829 15.432 14.2452 14.2349 14.746C13.7257 14.9341 13.2589 15.2201 12.8612 15.5877C12.5523 15.8677 12.3675 16.2579 12.3473 16.6728C12.3392 16.885 12.3738 17.0965 12.4488 17.2953C12.5238 17.4941 12.6377 17.6761 12.7841 17.8307C12.9291 17.9776 13.1035 18.0927 13.296 18.1686C13.4884 18.2445 13.6947 18.2794 13.9016 18.2712C14.3062 18.2687 14.7021 18.1538 15.0445 17.9395C15.4513 17.7109 15.7822 17.3698 15.9973 16.9576C16.2488 16.4328 16.3679 15.8549 16.3441 15.2741V14.8926H17.4508V15.2771C17.4621 15.9997 17.31 16.7156 17.0055 17.372L17.6519 18.1667C17.7693 18.0231 17.894 17.8855 18.0254 17.7544C18.9565 16.8311 20.2181 16.3125 21.5336 16.3125C22.849 16.3125 24.1107 16.8311 25.0418 17.7544C25.1279 17.8413 25.2 17.9346 25.2791 18.0251V14.6486H26.4889V20.1264L26.4868 20.13Z" fill="white"/>
</g>
<defs>
<clipPath id="clip0_725_5101">
<rect width="30.192" height="30" fill="white"/>
</clipPath>
</defs>
</svg>
