<svg width="20" height="21" viewBox="0 0 20 21" fill="none" xmlns="http://www.w3.org/2000/svg">
<path d="M7.08333 1.33333C4.55526 1.33333 2.5 3.20372 2.5 5.50439C2.5 7.76115 4.43947 9.58763 6.96754 9.66666C7.04474 9.65788 7.12193 9.65788 7.17982 9.66666C7.19912 9.66666 7.20877 9.66666 7.22807 9.66666C7.23772 9.66666 7.23772 9.66666 7.24737 9.66666C9.71754 9.58763 11.657 7.76115 11.6667 5.50439C11.6667 3.20372 9.6114 1.33333 7.08333 1.33333Z" fill="#A9B0B8"/>
<path d="M11.5933 12.5908C9.11637 10.9142 5.07695 10.9142 2.58228 12.5908C1.45479 13.3569 0.833344 14.3935 0.833344 15.5022C0.833344 16.611 1.45479 17.6385 2.5734 18.3957C3.8163 19.243 5.44982 19.6667 7.08334 19.6667C8.71687 19.6667 10.3504 19.243 11.5933 18.3957C12.7119 17.6295 13.3333 16.6019 13.3333 15.4842C13.3245 14.3755 12.7119 13.3479 11.5933 12.5908Z" fill="#A9B0B8"/>
<path d="M17.4875 6.04926C17.6459 7.85089 16.2798 9.42963 14.389 9.64322C14.3791 9.64322 14.3791 9.64322 14.3692 9.64322H14.3395C14.2801 9.64322 14.2207 9.64322 14.1712 9.6618C13.211 9.70823 12.3299 9.42034 11.6667 8.891C12.6863 8.03662 13.2704 6.75505 13.1516 5.36204C13.0823 4.60982 12.8051 3.9226 12.3893 3.33753C12.7655 3.16109 13.2011 3.04965 13.6465 3.0125C15.5868 2.85462 17.3192 4.21049 17.4875 6.04926Z" fill="#A9B0B8"/>
<path d="M19.1564 15.0932C19.0815 15.9848 18.5011 16.7569 17.5274 17.2809C16.5912 17.7864 15.4116 18.0254 14.2413 17.9979C14.9154 17.4004 15.3086 16.6558 15.3835 15.8653C15.4771 14.7255 14.9247 13.6317 13.82 12.7584C13.1927 12.2713 12.4624 11.8852 11.6667 11.6003C13.7357 11.012 16.3384 11.4072 17.9394 12.6757C18.8007 13.3559 19.2407 14.2108 19.1564 15.0932Z" fill="#A9B0B8"/>
</svg>
