<svg width="20" height="21" viewBox="0 0 20 21" fill="none" xmlns="http://www.w3.org/2000/svg">
<g clip-path="url(#clip0_864_4035)">
<path d="M14.1666 3.00001H17.5C17.721 3.00001 17.9329 3.08781 18.0892 3.24409C18.2455 3.40037 18.3333 3.61233 18.3333 3.83334V17.1667C18.3333 17.3877 18.2455 17.5997 18.0892 17.7559C17.9329 17.9122 17.721 18 17.5 18H2.49996C2.27895 18 2.06698 17.9122 1.9107 17.7559C1.75442 17.5997 1.66663 17.3877 1.66663 17.1667V3.83334C1.66663 3.61233 1.75442 3.40037 1.9107 3.24409C2.06698 3.08781 2.27895 3.00001 2.49996 3.00001H5.83329V1.33334H7.49996V3.00001H12.5V1.33334H14.1666V3.00001ZM3.33329 8.00001V16.3333H16.6666V8.00001H3.33329ZM4.99996 11.3333H9.16663V14.6667H4.99996V11.3333Z" fill="white"/>
</g>
<defs>
<clipPath id="clip0_864_4035">
<rect width="20" height="20" fill="white" transform="translate(0 0.5)"/>
</clipPath>
</defs>
</svg>
