<svg width="20" height="21" viewBox="0 0 20 21" fill="none" xmlns="http://www.w3.org/2000/svg">
<g clip-path="url(#clip0_864_4337)">
<path fill-rule="evenodd" clip-rule="evenodd" d="M17.2314 7.01059C17.0603 6.64568 16.8583 6.2961 16.6275 5.96569L16.6754 3.11857C15.622 2.15855 14.3725 1.43895 13.0135 1.00959L10.5786 2.4667C10.1764 2.43794 9.7728 2.43794 9.37069 2.4667L6.92619 1C5.57144 1.43733 4.32605 2.15971 3.27382 3.11857L3.32175 5.96569C3.09096 6.2961 2.88891 6.64568 2.71781 7.01059L0.22538 8.39102C-0.0783265 9.78096 -0.075055 11.2204 0.234967 12.609L2.71781 13.9894C2.89095 14.3563 3.09289 14.7089 3.32175 15.0439L3.27382 17.8814C4.32725 18.8414 5.57673 19.561 6.93577 19.9904L9.37069 18.5333C9.7728 18.5621 10.1764 18.5621 10.5786 18.5333L13.0231 20C14.3778 19.5627 15.6232 18.8403 16.6754 17.8814L16.6275 15.0343C16.8583 14.7039 17.0603 14.3543 17.2314 13.9894L19.7239 12.609C20.0276 11.219 20.0243 9.77956 19.7143 8.39102L17.2314 7.01059ZM14.5 10.5C14.5 12.9853 12.4853 15 10 15C7.51472 15 5.5 12.9853 5.5 10.5C5.5 8.01472 7.51472 6 10 6C12.4853 6 14.5 8.01472 14.5 10.5Z" fill="white"/>
<path d="M16.6275 5.96569L16.1276 5.95727C16.1258 6.06254 16.1573 6.16569 16.2176 6.252L16.6275 5.96569ZM17.2314 7.01059L16.7787 7.22286C16.8233 7.31794 16.8967 7.39657 16.9885 7.44759L17.2314 7.01059ZM16.6754 3.11857L17.1754 3.12698C17.1778 2.98341 17.1184 2.84573 17.0122 2.74901L16.6754 3.11857ZM13.0135 1.00959L13.1641 0.532815C13.0277 0.489731 12.8794 0.507104 12.7567 0.580542L13.0135 1.00959ZM10.5786 2.4667L10.5429 2.96543C10.6452 2.97274 10.7473 2.94842 10.8353 2.89574L10.5786 2.4667ZM9.37069 2.4667L9.11344 2.89545C9.20157 2.94832 9.30385 2.97276 9.40636 2.96543L9.37069 2.4667ZM6.92619 1L7.18343 0.571254C7.0597 0.49701 6.90991 0.479847 6.77259 0.524178L6.92619 1ZM3.27382 3.11857L2.93704 2.74899C2.8309 2.84572 2.77147 2.9834 2.77389 3.12698L3.27382 3.11857ZM3.32175 5.96569L3.73166 6.252C3.79195 6.16569 3.82345 6.06254 3.82168 5.95727L3.32175 5.96569ZM2.71781 7.01059L2.96006 7.44799C3.05217 7.39698 3.12582 7.31819 3.17052 7.22286L2.71781 7.01059ZM0.22538 8.39102L-0.0168696 7.95362C-0.14268 8.0233 -0.232394 8.14378 -0.263095 8.28429L0.22538 8.39102ZM0.234967 12.609L-0.253018 12.7179C-0.221914 12.8572 -0.132753 12.9766 -0.00799798 13.046L0.234967 12.609ZM2.71781 13.9894L3.16999 13.776C3.12536 13.6814 3.05219 13.6032 2.96078 13.5524L2.71781 13.9894ZM3.32175 15.0439L3.82168 15.0523C3.82342 14.9488 3.793 14.8473 3.7346 14.7618L3.32175 15.0439ZM3.27382 17.8814L2.77389 17.873C2.77146 18.0166 2.83089 18.1543 2.93703 18.251L3.27382 17.8814ZM6.93577 19.9904L6.78515 20.4672C6.92152 20.5103 7.06981 20.4929 7.19252 20.4195L6.93577 19.9904ZM9.37069 18.5333L9.40636 18.0346C9.30405 18.0273 9.20196 18.0516 9.11394 18.1043L9.37069 18.5333ZM10.5786 18.5333L10.8358 18.1046C10.7477 18.0517 10.6454 18.0272 10.5429 18.0346L10.5786 18.5333ZM13.0231 20L12.7658 20.4287C12.8896 20.503 13.0393 20.5202 13.1767 20.4758L13.0231 20ZM16.6754 17.8814L17.0122 18.251C17.1183 18.1543 17.1778 18.0166 17.1754 17.873L16.6754 17.8814ZM16.6275 15.0343L16.2176 14.748C16.1573 14.8343 16.1258 14.9375 16.1276 15.0427L16.6275 15.0343ZM17.2314 13.9894L16.9892 13.552C16.8971 13.603 16.8234 13.6818 16.7787 13.7771L17.2314 13.9894ZM19.7239 12.609L19.9661 13.0464C20.0919 12.9767 20.1816 12.8562 20.2123 12.7157L19.7239 12.609ZM19.7143 8.39102L20.2023 8.28207C20.1712 8.14276 20.082 8.02338 19.9572 7.95402L19.7143 8.39102ZM16.6275 5.96569L16.2176 6.252C16.432 6.559 16.6198 6.88381 16.7787 7.22286L17.2314 7.01059L17.6841 6.79833C17.5009 6.40756 17.2845 6.03321 17.0374 5.67938L16.6275 5.96569ZM16.6754 3.11857L16.1755 3.11015L16.1276 5.95727L16.6275 5.96569L17.1274 5.97411L17.1754 3.12698L16.6754 3.11857ZM13.0135 1.00959L12.8628 1.48636C14.1528 1.8939 15.3388 2.57692 16.3386 3.48813L16.6754 3.11857L17.0122 2.74901C15.9052 1.74019 14.5922 0.984007 13.1641 0.532815L13.0135 1.00959ZM10.5786 2.4667L10.8353 2.89574L13.2702 1.43863L13.0135 1.00959L12.7567 0.580542L10.3218 2.03766L10.5786 2.4667ZM9.37069 2.4667L9.40636 2.96543C9.78472 2.93836 10.1645 2.93836 10.5429 2.96543L10.5786 2.4667L10.6142 1.96797C10.1884 1.93751 9.76088 1.93751 9.33501 1.96797L9.37069 2.4667ZM6.92619 1L6.66894 1.42875L9.11344 2.89545L9.37069 2.4667L9.62794 2.03795L7.18343 0.571254L6.92619 1ZM3.27382 3.11857L3.61059 3.48814C4.61006 2.57737 5.79298 1.89122 7.07979 1.47582L6.92619 1L6.77259 0.524178C5.34989 0.983437 4.04205 1.74205 2.93704 2.74899L3.27382 3.11857ZM3.32175 5.96569L3.82168 5.95727L3.77375 3.11015L3.27382 3.11857L2.77389 3.12698L2.82182 5.97411L3.32175 5.96569ZM2.71781 7.01059L3.17052 7.22286C3.32949 6.88381 3.51722 6.559 3.73166 6.252L3.32175 5.96569L2.91184 5.67938C2.6647 6.03321 2.44833 6.40756 2.2651 6.79833L2.71781 7.01059ZM0.22538 8.39102L0.46763 8.82841L2.96006 7.44799L2.71781 7.01059L2.47556 6.5732L-0.0168696 7.95362L0.22538 8.39102ZM0.234967 12.609L0.722952 12.5C0.428783 11.1825 0.425679 9.81662 0.713856 8.49775L0.22538 8.39102L-0.263095 8.28429C-0.582332 9.7453 -0.578893 11.2584 -0.253018 12.7179L0.234967 12.609ZM2.71781 13.9894L2.96078 13.5524L0.477931 12.172L0.234967 12.609L-0.00799798 13.046L2.47485 14.4264L2.71781 13.9894ZM3.32175 15.0439L3.7346 14.7618C3.52065 14.4487 3.33186 14.119 3.16999 13.776L2.71781 13.9894L2.26563 14.2028C2.45004 14.5936 2.66514 14.9691 2.90889 15.3259L3.32175 15.0439ZM3.27382 17.8814L3.77374 17.8899L3.82168 15.0523L3.32175 15.0439L2.82182 15.0355L2.77389 17.873L3.27382 17.8814ZM6.93577 19.9904L7.0864 19.5136C5.79645 19.1061 4.61048 18.4231 3.6106 17.5119L3.27382 17.8814L2.93703 18.251C4.04401 19.2598 5.35702 20.016 6.78515 20.4672L6.93577 19.9904ZM9.37069 18.5333L9.11394 18.1043L6.67902 19.5614L6.93577 19.9904L7.19252 20.4195L9.62744 18.9623L9.37069 18.5333ZM10.5786 18.5333L10.5429 18.0346C10.1645 18.0616 9.78472 18.0616 9.40636 18.0346L9.37069 18.5333L9.33501 19.032C9.76088 19.0625 10.1884 19.0625 10.6142 19.032L10.5786 18.5333ZM13.0231 20L13.2803 19.5713L10.8358 18.1046L10.5786 18.5333L10.3213 18.962L12.7658 20.4287L13.0231 20ZM16.6754 17.8814L16.3387 17.5119C15.3392 18.4226 14.1563 19.1088 12.8695 19.5242L13.0231 20L13.1767 20.4758C14.5994 20.0166 15.9072 19.2579 17.0122 18.251L16.6754 17.8814ZM16.6275 15.0343L16.1276 15.0427L16.1755 17.8898L16.6754 17.8814L17.1754 17.873L17.1274 15.0259L16.6275 15.0343ZM17.2314 13.9894L16.7787 13.7771C16.6198 14.1162 16.432 14.441 16.2176 14.748L16.6275 15.0343L17.0374 15.3206C17.2845 14.9668 17.5009 14.5924 17.6841 14.2017L17.2314 13.9894ZM19.7239 12.609L19.4816 12.1716L16.9892 13.552L17.2314 13.9894L17.4737 14.4268L19.9661 13.0464L19.7239 12.609ZM19.7143 8.39102L19.2263 8.49997C19.5205 9.81751 19.5236 11.1834 19.2354 12.5022L19.7239 12.609L20.2123 12.7157C20.5316 11.2547 20.5281 9.74162 20.2023 8.28207L19.7143 8.39102ZM17.2314 7.01059L16.9885 7.44759L19.4713 8.82802L19.7143 8.39102L19.9572 7.95402L17.4744 6.5736L17.2314 7.01059ZM10 15V15.5C12.7614 15.5 15 13.2614 15 10.5H14.5H14C14 12.7091 12.2091 14.5 10 14.5V15ZM5.5 10.5H5C5 13.2614 7.23858 15.5 10 15.5V15V14.5C7.79086 14.5 6 12.7091 6 10.5H5.5ZM10 6V5.5C7.23858 5.5 5 7.73858 5 10.5H5.5H6C6 8.29086 7.79086 6.5 10 6.5V6ZM14.5 10.5H15C15 7.73858 12.7614 5.5 10 5.5V6V6.5C12.2091 6.5 14 8.29086 14 10.5H14.5Z" fill="white"/>
</g>
<defs>
<clipPath id="clip0_864_4337">
<rect width="20" height="20" fill="white" transform="translate(0 0.5)"/>
</clipPath>
</defs>
</svg>
