<svg width="20" height="21" viewBox="0 0 20 21" fill="none" xmlns="http://www.w3.org/2000/svg">
<path d="M12.2721 18.0969V13.6817C12.2721 13.4865 12.1923 13.2994 12.0502 13.1614C11.9082 13.0234 11.7155 12.9458 11.5146 12.9458H8.48425C8.28333 12.9458 8.09064 13.0234 7.94857 13.1614C7.80649 13.2994 7.72668 13.4865 7.72668 13.6817V18.0969C7.72668 18.292 7.64687 18.4792 7.50482 18.6172C7.36277 18.7552 7.1701 18.8327 6.9692 18.8328L2.4243 18.8333C2.3248 18.8333 2.22628 18.8143 2.13436 18.7773C2.04243 18.7404 1.95891 18.6862 1.88855 18.6178C1.81819 18.5495 1.76238 18.4684 1.7243 18.3791C1.68622 18.2898 1.66663 18.1941 1.66663 18.0975V9.5928C1.66663 9.49028 1.68868 9.3889 1.73137 9.29514C1.77407 9.20138 1.83646 9.11733 1.91455 9.04836L9.48979 2.35808C9.62924 2.23492 9.81094 2.16668 9.99941 2.16667C10.1879 2.16667 10.3696 2.2349 10.5091 2.35805L18.0853 9.04835C18.1634 9.11732 18.2258 9.20138 18.2685 9.29515C18.3112 9.38891 18.3333 9.49031 18.3333 9.59283V18.0975C18.3333 18.1941 18.3137 18.2898 18.2756 18.3791C18.2375 18.4684 18.1817 18.5495 18.1114 18.6178C18.041 18.6862 17.9575 18.7404 17.8656 18.7774C17.7736 18.8143 17.6751 18.8334 17.5756 18.8333L13.0296 18.8328C12.8287 18.8327 12.636 18.7552 12.494 18.6172C12.3519 18.4792 12.2721 18.292 12.2721 18.0969V18.0969Z" fill="white" stroke="white" stroke-linecap="round" stroke-linejoin="round"/>
</svg>
