<svg width="20" height="21" viewBox="0 0 20 21" fill="none" xmlns="http://www.w3.org/2000/svg">
<path d="M12.2722 18.0969V13.6817C12.2722 13.4865 12.1924 13.2993 12.0503 13.1613C11.9082 13.0233 11.7155 12.9458 11.5146 12.9458H8.4843C8.28338 12.9458 8.09068 13.0233 7.94861 13.1613C7.80654 13.2993 7.72672 13.4865 7.72672 13.6817V18.0969C7.72672 18.292 7.64692 18.4792 7.50487 18.6172C7.36281 18.7552 7.17015 18.8327 6.96924 18.8327L2.42434 18.8333C2.32485 18.8333 2.22633 18.8143 2.1344 18.7773C2.04248 18.7404 1.95895 18.6862 1.88859 18.6178C1.81824 18.5495 1.76243 18.4684 1.72435 18.3791C1.68627 18.2898 1.66667 18.1941 1.66667 18.0975V9.5928C1.66667 9.49028 1.68873 9.38889 1.73142 9.29513C1.77412 9.20138 1.83651 9.11732 1.9146 9.04835L9.48984 2.35807C9.62928 2.23492 9.81099 2.16667 9.99946 2.16666C10.1879 2.16666 10.3696 2.23489 10.5091 2.35804L18.0854 9.04835C18.1635 9.11732 18.2259 9.20138 18.2686 9.29514C18.3113 9.3889 18.3333 9.4903 18.3333 9.59283V18.0975C18.3333 18.1941 18.3137 18.2898 18.2757 18.3791C18.2376 18.4684 18.1818 18.5495 18.1114 18.6178C18.0411 18.6862 17.9575 18.7404 17.8656 18.7773C17.7737 18.8143 17.6752 18.8333 17.5757 18.8333L13.0297 18.8327C12.8288 18.8327 12.6361 18.7552 12.494 18.6172C12.352 18.4792 12.2722 18.292 12.2722 18.0969V18.0969Z" fill="#8C959F" stroke="#8C959F" stroke-linecap="round" stroke-linejoin="round"/>
</svg>
